<svg xmlns="http://www.w3.org/2000/svg" width="375" viewBox="0 0 375 375" height="375" version="1.0"><path fill="#F6F6E9" d="M 343.960938 0.0429688 L 343.089844 0.0429688 L 343.089844 29.425781 L 323.035156 29.425781 L 323.035156 0.0429688 L 301.238281 0.0429688 L 301.238281 29.425781 L 281.183594 29.425781 L 281.183594 0.0429688 L 259.386719 0.0429688 L 259.386719 29.425781 L 239.332031 29.425781 L 239.332031 0.0429688 L 217.535156 0.0429688 L 217.535156 29.425781 L 197.484375 29.425781 L 197.484375 0.0429688 L 175.6875 0.0429688 L 175.6875 29.425781 L 155.632812 29.425781 L 155.632812 0.0429688 L 133.835938 0.0429688 L 133.835938 29.425781 L 113.78125 29.425781 L 113.78125 0.0429688 L 91.984375 0.0429688 L 91.984375 29.425781 L 71.929688 29.425781 L 71.929688 0.0429688 L 50.132812 0.0429688 L 50.132812 29.425781 L 30.082031 29.425781 L 30.082031 0.0429688 C 13.777344 0.21875 0 13.992188 0 30.996094 L 0 344.003906 C 0 361.09375 13.863281 374.957031 30.953125 374.957031 L 343.960938 374.957031 C 361.050781 374.957031 374.914062 361.09375 374.914062 344.003906 L 374.914062 30.996094 C 375 13.90625 361.136719 0.0429688 343.960938 0.0429688 Z M 343.960938 0.0429688"/><path fill="#7D9B76" d="M 23.28125 91.765625 L 351.71875 91.765625 M 351.71875 91.242188 L 23.28125 91.242188 L 23.28125 92.289062 L 351.71875 92.289062 Z M 23.28125 134.402344 L 351.71875 134.402344 M 351.71875 133.878906 L 23.28125 133.878906 L 23.28125 134.925781 L 351.71875 134.925781 Z M 23.28125 177.125 L 351.71875 177.125 M 351.71875 176.601562 L 23.28125 176.601562 L 23.28125 177.648438 L 351.71875 177.648438 Z M 351.71875 219.847656 L 23.28125 219.847656 M 351.71875 219.324219 L 23.28125 219.324219 L 23.28125 220.371094 L 351.71875 220.371094 Z M 23.28125 262.570312 L 351.71875 262.570312 M 351.71875 262.046875 L 23.28125 262.046875 L 23.28125 263.09375 L 351.71875 263.09375 Z M 23.28125 305.207031 L 351.71875 305.207031 M 351.71875 304.769531 L 23.28125 304.769531 L 23.28125 305.816406 L 351.71875 305.816406 Z M 351.71875 304.769531"/></svg>